<svg width="720" height="520" viewBox="0 0 720 520" fill="none" xmlns="http://www.w3.org/2000/svg">
  <rect width="720" height="520" rx="36" fill="#0F1218"/>
  <rect x="60" y="90" width="600" height="340" rx="26" fill="#151A22" stroke="#242B36" stroke-width="2"/>
  <rect x="90" y="120" width="540" height="280" rx="20" fill="#0A0D12"/>
  <rect x="120" y="140" width="480" height="14" rx="7" fill="url(#paint0_linear)"/>
  <rect x="120" y="182" width="480" height="14" rx="7" fill="url(#paint1_linear)"/>
  <rect x="120" y="224" width="480" height="14" rx="7" fill="url(#paint2_linear)"/>
  <rect x="120" y="266" width="480" height="14" rx="7" fill="url(#paint3_linear)"/>
  <rect x="120" y="308" width="480" height="14" rx="7" fill="url(#paint4_linear)"/>
  <rect x="120" y="350" width="480" height="14" rx="7" fill="url(#paint5_linear)"/>
  <circle cx="600" cy="396" r="44" fill="url(#paint6_radial)" />
  <defs>
    <linearGradient id="paint0_linear" x1="120" y1="147" x2="600" y2="147" gradientUnits="userSpaceOnUse">
      <stop stop-color="#FFD66D"/>
      <stop offset="1" stop-color="#FF8C52"/>
    </linearGradient>
    <linearGradient id="paint1_linear" x1="120" y1="189" x2="600" y2="189" gradientUnits="userSpaceOnUse">
      <stop stop-color="#5CD6FF"/>
      <stop offset="1" stop-color="#4EA3FF"/>
    </linearGradient>
    <linearGradient id="paint2_linear" x1="120" y1="231" x2="600" y2="231" gradientUnits="userSpaceOnUse">
      <stop stop-color="#FFD66D"/>
      <stop offset="1" stop-color="#FF8C52"/>
    </linearGradient>
    <linearGradient id="paint3_linear" x1="120" y1="273" x2="600" y2="273" gradientUnits="userSpaceOnUse">
      <stop stop-color="#5CD6FF"/>
      <stop offset="1" stop-color="#4EA3FF"/>
    </linearGradient>
    <linearGradient id="paint4_linear" x1="120" y1="315" x2="600" y2="315" gradientUnits="userSpaceOnUse">
      <stop stop-color="#FFD66D"/>
      <stop offset="1" stop-color="#FF8C52"/>
    </linearGradient>
    <linearGradient id="paint5_linear" x1="120" y1="357" x2="600" y2="357" gradientUnits="userSpaceOnUse">
      <stop stop-color="#5CD6FF"/>
      <stop offset="1" stop-color="#4EA3FF"/>
    </linearGradient>
    <radialGradient id="paint6_radial" cx="0" cy="0" r="1" gradientUnits="userSpaceOnUse" gradientTransform="translate(600 396) rotate(90) scale(44)">
      <stop stop-color="#FFD66D" stop-opacity="0.9"/>
      <stop offset="1" stop-color="#0A0D12" stop-opacity="0"/>
    </radialGradient>
  </defs>
</svg>
